<?xml version="1.0" encoding="UTF-8"?><svg version="1.1" width="100px" height="100px" viewBox="0 0 100.0 100.0" xmlns="http://www.w3.org/2000/svg" xmlns:xlink="http://www.w3.org/1999/xlink"><defs><clipPath id="i0"><path d="M879,0 L879,1001 L0,1001 L0,0 L879,0 Z"></path></clipPath><clipPath id="i1"><path d="M92,0 C96.418278,-8.11624501e-16 100,3.581722 100,8 L100,92 C100,96.418278 96.418278,100 92,100 L8,100 C3.581722,100 5.41083001e-16,96.418278 0,92 L0,8 C-5.41083001e-16,3.581722 3.581722,8.11624501e-16 8,0 L92,0 Z"></path></clipPath><clipPath id="i2"><path d="M19.5,0 L25.2309062,11.6120843 L38.0456021,13.4741686 L28.772801,22.5129157 L30.9618124,35.2758314 L19.5,29.25 L8.03818758,35.2758314 L10.227199,22.5129157 L0.954397932,13.4741686 L13.7690938,11.6120843 L19.5,0 Z"></path></clipPath></defs><g transform="translate(-318.0 -263.0)"><g clip-path="url(#i0)"><g transform="translate(318.0 263.0)"><g clip-path="url(#i1)"><polygon points="0,0 100,0 100,100 0,100 0,0" stroke="none" fill="#DBA652"></polygon></g><g transform="translate(30.0 30.0)"><g clip-path="url(#i2)"><polygon points="0.954397932,0 38.0456021,0 38.0456021,35.2758314 0.954397932,35.2758314 0.954397932,0" stroke="none" fill="#07F824"></polygon></g></g></g></g></g></svg>