<?xml version="1.0" encoding="UTF-8"?><svg version="1.1" width="32px" height="32px" viewBox="0 0 32.0 32.0" xmlns="http://www.w3.org/2000/svg" xmlns:xlink="http://www.w3.org/1999/xlink"><defs><clipPath id="i0"><path d="M879,0 L879,1001 L0,1001 L0,0 L879,0 Z"></path></clipPath><clipPath id="i1"><path d="M24,0 C28.418278,-8.11624501e-16 32,3.581722 32,8 L32,24 C32,28.418278 28.418278,32 24,32 L8,32 C3.581722,32 5.41083001e-16,28.418278 0,24 L0,8 C-5.41083001e-16,3.581722 3.581722,8.11624501e-16 8,0 L24,0 Z"></path></clipPath><clipPath id="i2"><path d="M10,0 L18.660254,5 L18.660254,15 L10,20 L1.33974596,15 L1.33974596,5 L10,0 Z"></path></clipPath></defs><g transform="translate(-208.0 -501.0)"><g clip-path="url(#i0)"><g transform="translate(208.0 501.0)"><g clip-path="url(#i1)"><polygon points="0,0 32,0 32,32 0,32 0,0" stroke="none" fill="#7FCE62"></polygon></g><g transform="translate(6.0 6.0)"><g clip-path="url(#i2)"><polygon points="1.33974596,0 18.660254,0 18.660254,20 1.33974596,20 1.33974596,0" stroke="none" fill="#FFFFFF"></polygon></g></g></g></g></g></svg>