<?xml version="1.0" encoding="UTF-8"?><svg version="1.1" width="32px" height="32px" viewBox="0 0 32.0 32.0" xmlns="http://www.w3.org/2000/svg" xmlns:xlink="http://www.w3.org/1999/xlink"><defs><clipPath id="i0"><path d="M879,0 L879,1001 L0,1001 L0,0 L879,0 Z"></path></clipPath><clipPath id="i1"><path d="M24,0 C28.418278,-8.11624501e-16 32,3.581722 32,8 L32,24 C32,28.418278 28.418278,32 24,32 L8,32 C3.581722,32 5.41083001e-16,28.418278 0,24 L0,8 C-5.41083001e-16,3.581722 3.581722,8.11624501e-16 8,0 L24,0 Z"></path></clipPath></defs><g transform="translate(-440.0 -476.0)"><g clip-path="url(#i0)"><g transform="translate(440.0 476.0)"><g clip-path="url(#i1)"><polygon points="0,0 32,0 32,32 0,32 0,0" stroke="none" fill="#E2E39D"></polygon></g><g transform="translate(7.0 15.0)"><polygon points="8,-4 17,0.5 8,5 8,1 0,1 0,0 8,0 8,-4 8,-4" stroke="none" fill="#EB4141"></polygon></g></g></g></g></svg>